<svg id="Группа_1" data-name="Группа 1" xmlns="http://www.w3.org/2000/svg" width="180.75" height="50.906" viewBox="0 0 180.75 50.906">
  <defs>
    <style>
      .cls-1 {
        fill: #f1cdb3;
      }

      .cls-1, .cls-2 {
        fill-rule: evenodd;
      }

      .cls-2 {
        fill: #fff;
      }
    </style>
  </defs>
  <path id="Cozy_House" data-name="Cozy House" class="cls-1" d="M391.565,80.769a9.678,9.678,0,0,0,3.56-4.711l-1.172-.562a8.624,8.624,0,0,1-.968,1.906,8.2,8.2,0,0,1-1.373,1.563,6.231,6.231,0,0,1-1.842,1.055,6.56,6.56,0,0,1-2.325.4,6.231,6.231,0,0,1-3.052-.75,7.414,7.414,0,0,1-2.364-2.08,10.1,10.1,0,0,1-1.538-3.12,13.426,13.426,0,0,1-.538-3.9,17.143,17.143,0,0,1,.515-4.363,9.81,9.81,0,0,1,1.42-3.222A6.426,6.426,0,0,1,384.143,61a6.056,6.056,0,0,1,2.817-.672,4.588,4.588,0,0,1,2.357.6A5.692,5.692,0,0,1,391.1,62.59a9.712,9.712,0,0,1,1.17,2.289,18.747,18.747,0,0,1,.75,2.508H394.3l-0.141-7.906h-1.25l-0.64,1.063a11.021,11.021,0,0,0-2.529-1.141A10.108,10.108,0,0,0,386.771,59a10.227,10.227,0,0,0-4.136.845,9.851,9.851,0,0,0-3.357,2.392,11.316,11.316,0,0,0-2.247,3.729,13.635,13.635,0,0,0-.812,4.824,13.035,13.035,0,0,0,.827,4.777,10.96,10.96,0,0,0,2.217,3.588,9.746,9.746,0,0,0,3.224,2.251A10.154,10.154,0,0,0,391.565,80.769ZM411.41,67.988a7.7,7.7,0,0,0-10.855.117,8.4,8.4,0,0,0-2.1,5.906,9.04,9.04,0,0,0,.6,3.383,7.717,7.717,0,0,0,1.619,2.555,7.046,7.046,0,0,0,2.361,1.617,7.207,7.207,0,0,0,2.8.555,8.032,8.032,0,0,0,3.191-.609,6.845,6.845,0,0,0,2.5-1.859A7.609,7.609,0,0,0,413,76.988a10.174,10.174,0,0,0,.516-3.2A8,8,0,0,0,411.41,67.988Zm-2.273,11.055a3.484,3.484,0,0,1-3.1,1.891,3.367,3.367,0,0,1-2-.57,4.408,4.408,0,0,1-1.338-1.57,7.964,7.964,0,0,1-.775-2.273,14.812,14.812,0,0,1-.243-2.773,14.4,14.4,0,0,1,.2-2.359,7.189,7.189,0,0,1,.7-2.172,4.38,4.38,0,0,1,1.385-1.625A3.515,3.515,0,0,1,406.038,67a3.315,3.315,0,0,1,1.988.586,4.331,4.331,0,0,1,1.315,1.555,7.84,7.84,0,0,1,.7,2.211,14.053,14.053,0,0,1,.235,2.477A10.085,10.085,0,0,1,409.137,79.043Zm20.5-2.828H428.7q-0.187.75-.43,1.547t-0.413,1.25a2.853,2.853,0,0,1-.493.891,1.233,1.233,0,0,1-.944.422q-1.064.063-1.742,0.078t-1.3.016q-0.782,0-1.453-.008t-1.234-.023l8.857-13.5V66.246H417.763V70.98h0.953a9.98,9.98,0,0,1,.665-2.125,1.823,1.823,0,0,1,.822-0.984,4.361,4.361,0,0,1,1.409-.312q0.768-.047,2.13-0.047h2.16l-8.733,13.313v0.828h12.469V76.215Zm2.865,11.8a2.908,2.908,0,0,0,1.914.578,3.329,3.329,0,0,0,1.211-.227,4.385,4.385,0,0,0,1.305-.883,10.287,10.287,0,0,0,1.508-1.93,29.028,29.028,0,0,0,1.758-3.414q0.75-1.672,2.195-5.219t3.305-7.859a2.82,2.82,0,0,1,1.14-1.3,3.843,3.843,0,0,1,1.235-.539V66.246h-5.722v1a4.228,4.228,0,0,1,1.351.43,1,1,0,0,1,.711.757,2.564,2.564,0,0,1-.2.9q-0.2.523-.313,0.82-0.939,2.435-1.7,4.223t-1.463,3.458q-0.671-1.748-1.885-4.66t-1.808-4.458q-0.093-.234-0.164-0.453a1.183,1.183,0,0,1-.07-0.312,0.732,0.732,0,0,1,.656-0.413,5.014,5.014,0,0,1,1.125-.2V66.246h-7.034v1.031a4.14,4.14,0,0,1,1.406.508,2.241,2.241,0,0,1,1,1.117q1.313,3.124,2.515,6.045t2.687,6.623a17.838,17.838,0,0,1-1.57,3.118,6.235,6.235,0,0,1-1.867,2.2q-0.156-.264-0.422-0.666a4.023,4.023,0,0,0-.5-0.636,2.414,2.414,0,0,0-.64-0.481,1.849,1.849,0,0,0-.859-0.186,1.364,1.364,0,0,0-1.071.492,1.867,1.867,0,0,0-.429,1.273A1.7,1.7,0,0,0,432.5,88.011Zm51.52-7.469a6.992,6.992,0,0,1-1.07-.156,3.966,3.966,0,0,1-.945-0.281,1.539,1.539,0,0,1-.711-0.656,2.12,2.12,0,0,1-.18-0.922V62.543a2.481,2.481,0,0,1,.18-0.953,1.113,1.113,0,0,1,.711-0.625,7.488,7.488,0,0,1,.945-0.234,6.989,6.989,0,0,1,1.07-.141V59.48h-9.2V60.59a5.929,5.929,0,0,1,1.039.188,5.7,5.7,0,0,1,1.024.359,1.415,1.415,0,0,1,.7.648,2.053,2.053,0,0,1,.2.914v6.719H467.367V62.543a2.481,2.481,0,0,1,.18-0.953,1.113,1.113,0,0,1,.711-0.625,7.488,7.488,0,0,1,.945-0.234,6.989,6.989,0,0,1,1.07-.141V59.48h-9.2V60.59a5.929,5.929,0,0,1,1.039.188,5.675,5.675,0,0,1,1.024.359,1.415,1.415,0,0,1,.7.648,2.053,2.053,0,0,1,.2.914v16a1.984,1.984,0,0,1-.219.992,1.325,1.325,0,0,1-.687.57,3.258,3.258,0,0,1-.977.188l-1.086.094v1.109h9.2V80.543a6.992,6.992,0,0,1-1.07-.156,3.966,3.966,0,0,1-.945-0.281,1.539,1.539,0,0,1-.711-0.656,2.12,2.12,0,0,1-.18-0.922V70.808h10.422V78.7a1.984,1.984,0,0,1-.219.992,1.325,1.325,0,0,1-.687.57,3.258,3.258,0,0,1-.977.188l-1.086.094v1.109h9.2V80.543Zm17.036-12.555a7.7,7.7,0,0,0-10.855.117,8.4,8.4,0,0,0-2.1,5.906,9.06,9.06,0,0,0,.6,3.383,7.733,7.733,0,0,0,1.619,2.555,7.05,7.05,0,0,0,2.362,1.617,7.2,7.2,0,0,0,2.8.555,8.032,8.032,0,0,0,3.191-.609,6.842,6.842,0,0,0,2.5-1.859,7.627,7.627,0,0,0,1.471-2.664,10.174,10.174,0,0,0,.516-3.2A8.008,8.008,0,0,0,501.059,67.988Zm-2.274,11.055a3.482,3.482,0,0,1-3.1,1.891,3.37,3.37,0,0,1-2-.57,4.428,4.428,0,0,1-1.338-1.57,8,8,0,0,1-.775-2.273,14.815,14.815,0,0,1-.242-2.773,14.287,14.287,0,0,1,.2-2.359,7.189,7.189,0,0,1,.7-2.172,4.382,4.382,0,0,1,1.386-1.625A3.509,3.509,0,0,1,495.686,67a3.313,3.313,0,0,1,1.988.586,4.321,4.321,0,0,1,1.315,1.555,7.808,7.808,0,0,1,.7,2.211,13.959,13.959,0,0,1,.235,2.477A10.085,10.085,0,0,1,498.785,79.043Zm24.814,1.3a8.175,8.175,0,0,1-.86-0.07,1.738,1.738,0,0,1-.672-0.227,1.98,1.98,0,0,1-.609-0.64,1.765,1.765,0,0,1-.219-0.906V66.277L521,66.058l-5.609.375v1.031q0.689,0.032,1.243.07a1.748,1.748,0,0,1,.836.226,2.05,2.05,0,0,1,.609.679,1.863,1.863,0,0,1,.219.913v8.724a4.015,4.015,0,0,1-.492.679,5.261,5.261,0,0,1-.743.694,4.4,4.4,0,0,1-1.125.624,4.144,4.144,0,0,1-1.531.265,2.324,2.324,0,0,1-1.8-.844,3.685,3.685,0,0,1-.75-2.516v-10.7l-0.234-.219-5.141.375v1.031a6.818,6.818,0,0,1,.9.117,1.867,1.867,0,0,1,1.329.937,1.917,1.917,0,0,1,.213.944v7.367A6.091,6.091,0,0,0,510,80.708a3.752,3.752,0,0,0,3.112,1.334,6.125,6.125,0,0,0,1.856-.219,6.893,6.893,0,0,0,1.358-.641,5.935,5.935,0,0,0,1.076-.8q0.468-.445.842-0.836h0.094V81.5l0.235,0.219,5.031-.344V80.34Zm12.8-7.2a15.165,15.165,0,0,0-1.946-.766q-1.047-.344-1.757-0.617a6.029,6.029,0,0,1-1.18-.586,2.163,2.163,0,0,1-.727-0.8,2.543,2.543,0,0,1-.242-1.172,2,2,0,0,1,.735-1.558A2.946,2.946,0,0,1,533.3,67a3.681,3.681,0,0,1,2.649,1.043,4.981,4.981,0,0,1,1.414,2.707h1.078l-0.235-4.953h-1.125l-0.359.813a6.406,6.406,0,0,0-1.539-.562,7.672,7.672,0,0,0-1.852-.234,5.3,5.3,0,0,0-3.765,1.313,4.214,4.214,0,0,0-1.406,3.2A3.833,3.833,0,0,0,528.6,72.2a4.412,4.412,0,0,0,1.125,1.344,6.5,6.5,0,0,0,1.539.9,15.448,15.448,0,0,0,1.633.6q0.921,0.281,1.672.57a5.954,5.954,0,0,1,1.265.648,2.493,2.493,0,0,1,.758.836,2.346,2.346,0,0,1,.258,1.133,2.417,2.417,0,0,1-.812,1.957,3.5,3.5,0,0,1-2.313.684,3.894,3.894,0,0,1-1.914-.47,5.424,5.424,0,0,1-1.461-1.16,6.841,6.841,0,0,1-.984-1.474,6.02,6.02,0,0,1-.532-1.427h-1.078L527.91,81.7h1.171l0.313-1.016a6.809,6.809,0,0,0,1.617.891,6.847,6.847,0,0,0,6.625-.875,4.38,4.38,0,0,0,1.6-3.5,4.224,4.224,0,0,0-.344-1.8,3.934,3.934,0,0,0-.984-1.3A6.4,6.4,0,0,0,536.4,73.136Zm19.475,4.219a6.445,6.445,0,0,1-1.946,2.348,4.316,4.316,0,0,1-2.4.652,4.92,4.92,0,0,1-2.344-.525A4.349,4.349,0,0,1,547.6,78.4a6.607,6.607,0,0,1-.915-2.177,12.174,12.174,0,0,1-.289-2.756h10.2V72.433a9.061,9.061,0,0,0-.352-2.578,5.8,5.8,0,0,0-1.07-2.062,5.146,5.146,0,0,0-1.953-1.453,7.135,7.135,0,0,0-2.891-.531,6.373,6.373,0,0,0-2.961.68,6.773,6.773,0,0,0-2.211,1.789,8.289,8.289,0,0,0-1.4,2.6,9.341,9.341,0,0,0-.477,2.945A11.084,11.084,0,0,0,543.728,77a7.571,7.571,0,0,0,1.352,2.625,6.39,6.39,0,0,0,2.3,1.781,7.591,7.591,0,0,0,3.257.656,6.533,6.533,0,0,0,3.735-1.094,7.894,7.894,0,0,0,2.594-2.937Zm-9.485-5.2a6.352,6.352,0,0,1,1.18-3.793A3.35,3.35,0,0,1,550.3,67a2.68,2.68,0,0,1,1.609.452,3.161,3.161,0,0,1,.984,1.168,5.718,5.718,0,0,1,.477,1.667,12.72,12.72,0,0,1,.148,1.869h-7.125Z" transform="translate(-376.219 -59)"/>
  <path id="Shelter_for_pets_in_Boston_" data-name="Shelter for pets in Boston " class="cls-2" d="M378.1,105.991a2.962,2.962,0,0,0,1.339,1.107,5.344,5.344,0,0,0,2.117.369,4.259,4.259,0,0,0,1.793-.365,2.8,2.8,0,0,0,1.222-1.022,2.53,2.53,0,0,0,.426-1.4,2.308,2.308,0,0,0-.388-1.324,2.824,2.824,0,0,0-1.2-.949,12.3,12.3,0,0,0-2.06-.593,4.913,4.913,0,0,1-1.857-.663,1.06,1.06,0,0,1-.362-0.826,1.229,1.229,0,0,1,.511-0.987,2.605,2.605,0,0,1,1.629-.409,2.506,2.506,0,0,1,1.621.451,1.907,1.907,0,0,1,.645,1.333l1.18-.089a2.811,2.811,0,0,0-.457-1.466,2.627,2.627,0,0,0-1.215-.981,4.666,4.666,0,0,0-1.825-.333,4.434,4.434,0,0,0-1.708.317,2.479,2.479,0,0,0-1.168.93,2.37,2.37,0,0,0-.4,1.317,2.12,2.12,0,0,0,.327,1.158,2.519,2.519,0,0,0,.994.867,8.5,8.5,0,0,0,1.8.581,16.135,16.135,0,0,1,1.657.454,1.886,1.886,0,0,1,.838.549,1.21,1.21,0,0,1,.254.764,1.33,1.33,0,0,1-.264.8,1.72,1.72,0,0,1-.8.575,3.432,3.432,0,0,1-1.244.209,3.545,3.545,0,0,1-1.428-.276,2.092,2.092,0,0,1-.936-0.724,2.562,2.562,0,0,1-.384-1.145l-1.162.1A3.14,3.14,0,0,0,378.1,105.991Zm11.2,1.317V103.62a3.277,3.277,0,0,1,.19-1.244,1.485,1.485,0,0,1,.638-0.714,1.849,1.849,0,0,1,.955-0.264,1.38,1.38,0,0,1,1.051.391,1.767,1.767,0,0,1,.371,1.247v4.272h1.143v-4.272a3.774,3.774,0,0,0-.238-1.511,1.734,1.734,0,0,0-.791-0.816,2.73,2.73,0,0,0-1.3-.3,2.552,2.552,0,0,0-2.018.927V98h-1.143v9.306H389.3Zm11.067-1.117a1.749,1.749,0,0,1-1.073.33,1.869,1.869,0,0,1-1.409-.591,2.584,2.584,0,0,1-.628-1.7h5.027c0-.135.006-0.237,0.006-0.3a3.657,3.657,0,0,0-.856-2.59,2.883,2.883,0,0,0-2.209-.921,2.966,2.966,0,0,0-2.273.94,3.723,3.723,0,0,0-.876,2.64,3.558,3.558,0,0,0,.867,2.555,3.079,3.079,0,0,0,2.345.911,3.111,3.111,0,0,0,1.93-.571,2.882,2.882,0,0,0,1.034-1.606l-1.18-.146A2.2,2.2,0,0,1,400.367,106.191Zm-2.453-4.31a1.81,1.81,0,0,1,1.323-.527,1.752,1.752,0,0,1,1.416.66,2.277,2.277,0,0,1,.431,1.276H397.32A2.083,2.083,0,0,1,397.914,101.881Zm7.96,5.427V98h-1.142v9.306h1.142Zm5.176-.978a0.76,0.76,0,0,1-.39-0.082,0.475,0.475,0,0,1-.2-0.222,2,2,0,0,1-.06-0.629v-3.942h1.149v-0.888H410.4V98.212l-1.137.686v1.67h-0.837v0.888h0.837v3.879a4.1,4.1,0,0,0,.14,1.349,1.1,1.1,0,0,0,.482.517,1.96,1.96,0,0,0,.965.2,4.229,4.229,0,0,0,.864-0.1l-0.165-1.009a3.658,3.658,0,0,1-.5.044h0Zm7.217-.139a1.749,1.749,0,0,1-1.073.33,1.869,1.869,0,0,1-1.409-.591,2.584,2.584,0,0,1-.628-1.7h5.027c0-.135.006-0.237,0.006-0.3a3.653,3.653,0,0,0-.857-2.59,2.879,2.879,0,0,0-2.208-.921,2.966,2.966,0,0,0-2.273.94,3.723,3.723,0,0,0-.876,2.64,3.558,3.558,0,0,0,.867,2.555,3.079,3.079,0,0,0,2.345.911,3.111,3.111,0,0,0,1.93-.571,2.882,2.882,0,0,0,1.034-1.606l-1.18-.146A2.2,2.2,0,0,1,418.267,106.191Zm-2.453-4.31a1.81,1.81,0,0,1,1.323-.527,1.752,1.752,0,0,1,1.416.66,2.277,2.277,0,0,1,.431,1.276H415.22A2.083,2.083,0,0,1,415.814,101.881Zm7.973,5.427v-3.529a4.445,4.445,0,0,1,.19-1.333,1.227,1.227,0,0,1,.426-0.626,1.086,1.086,0,0,1,.672-0.225,1.624,1.624,0,0,1,.838.248l0.394-1.061a2.232,2.232,0,0,0-1.174-.368,1.268,1.268,0,0,0-.734.229,2.776,2.776,0,0,0-.726.946v-1.022h-1.029v6.741h1.143Zm10.879,0v-5.853h1.314v-0.888h-1.314V99.945a1.2,1.2,0,0,1,.216-0.832,1,1,0,0,1,.736-0.222,3.843,3.843,0,0,1,.673.063l0.172-1a5.606,5.606,0,0,0-1.067-.114,2.094,2.094,0,0,0-1.165.276,1.462,1.462,0,0,0-.581.721,3.156,3.156,0,0,0-.12,1.009v0.718h-1.009v0.888h1.009v5.853h1.136Zm4.338-.756a3.028,3.028,0,0,0,2.289.908,3.308,3.308,0,0,0,1.628-.412,2.765,2.765,0,0,0,1.136-1.159,4.46,4.46,0,0,0,.391-2.047,3.466,3.466,0,0,0-.883-2.517,3.024,3.024,0,0,0-2.272-.911,3.136,3.136,0,0,0-2.12.749,3.475,3.475,0,0,0-1.041,2.774A3.627,3.627,0,0,0,439,106.552ZM439.871,102a1.884,1.884,0,0,1,2.834,0,2.787,2.787,0,0,1,.568,1.895,2.935,2.935,0,0,1-.565,1.974,1.879,1.879,0,0,1-2.837,0A3.6,3.6,0,0,1,439.871,102Zm8.116,5.307v-3.529a4.445,4.445,0,0,1,.19-1.333,1.227,1.227,0,0,1,.426-0.626,1.086,1.086,0,0,1,.672-0.225,1.624,1.624,0,0,1,.838.248l0.394-1.061a2.232,2.232,0,0,0-1.174-.368,1.268,1.268,0,0,0-.734.229,2.776,2.776,0,0,0-.726.946v-1.022h-1.029v6.741h1.143Zm10.613,2.583V106.61a2.338,2.338,0,0,0,.745.609,2.152,2.152,0,0,0,1.026.241,2.821,2.821,0,0,0,2.567-1.711,4.5,4.5,0,0,0,.371-1.863,4.584,4.584,0,0,0-.336-1.774,2.72,2.72,0,0,0-1-1.253,2.658,2.658,0,0,0-1.523-.445,2.291,2.291,0,0,0-1.124.257,2.576,2.576,0,0,0-.831.772v-0.876h-1.041v9.324H458.6Zm0.453-7.9a1.647,1.647,0,0,1,1.292-.683,1.6,1.6,0,0,1,1.266.641,2.977,2.977,0,0,1,.531,1.93,3.054,3.054,0,0,1-.543,2,1.652,1.652,0,0,1-1.305.645,1.62,1.62,0,0,1-1.276-.622,2.935,2.935,0,0,1-.526-1.924A3.055,3.055,0,0,1,459.053,101.992Zm10.614,4.2a1.749,1.749,0,0,1-1.073.33,1.869,1.869,0,0,1-1.409-.591,2.584,2.584,0,0,1-.628-1.7h5.027c0-.135.006-0.237,0.006-0.3a3.657,3.657,0,0,0-.856-2.59,2.883,2.883,0,0,0-2.209-.921,2.966,2.966,0,0,0-2.273.94,3.723,3.723,0,0,0-.876,2.64,3.558,3.558,0,0,0,.867,2.555,3.079,3.079,0,0,0,2.345.911,3.111,3.111,0,0,0,1.93-.571,2.882,2.882,0,0,0,1.034-1.606l-1.18-.146A2.2,2.2,0,0,1,469.667,106.191Zm-2.453-4.31a1.81,1.81,0,0,1,1.323-.527,1.752,1.752,0,0,1,1.416.66,2.277,2.277,0,0,1,.431,1.276H466.62A2.083,2.083,0,0,1,467.214,101.881Zm8.836,4.449a0.76,0.76,0,0,1-.39-0.082,0.475,0.475,0,0,1-.2-0.222,2,2,0,0,1-.06-0.629v-3.942h1.149v-0.888H475.4V98.212l-1.137.686v1.67h-0.837v0.888h0.837v3.879a4.1,4.1,0,0,0,.14,1.349,1.1,1.1,0,0,0,.482.517,1.96,1.96,0,0,0,.965.2,4.229,4.229,0,0,0,.864-0.1l-0.165-1.009a3.658,3.658,0,0,1-.5.044h0Zm3.729,0.584a3.168,3.168,0,0,0,2,.546,3.5,3.5,0,0,0,1.422-.276,2.147,2.147,0,0,0,.961-0.781,1.919,1.919,0,0,0,.334-1.076,1.68,1.68,0,0,0-.273-0.977,1.722,1.722,0,0,0-.753-0.6,14.15,14.15,0,0,0-1.691-.53q-0.838-.228-1.01-0.292a1.013,1.013,0,0,1-.438-0.3,0.628,0.628,0,0,1-.139-0.4,0.759,0.759,0,0,1,.336-0.609,1.874,1.874,0,0,1,1.124-.26,1.61,1.61,0,0,1,1.031.292,1.213,1.213,0,0,1,.441.812l1.118-.152a2.409,2.409,0,0,0-.394-1.044,1.888,1.888,0,0,0-.885-0.619,3.891,3.891,0,0,0-1.394-.229,3.457,3.457,0,0,0-.987.137,2.362,2.362,0,0,0-.727.333,1.84,1.84,0,0,0-.561.638,1.731,1.731,0,0,0-.207.835,1.664,1.664,0,0,0,.987,1.545,10.564,10.564,0,0,0,1.743.549,4.952,4.952,0,0,1,1.168.388,0.694,0.694,0,0,1,.336.609,0.957,0.957,0,0,1-.381.752,1.784,1.784,0,0,1-1.168.321,1.848,1.848,0,0,1-1.215-.362,1.576,1.576,0,0,1-.53-1.041l-1.13.178A2.538,2.538,0,0,0,479.779,106.914Zm14.327-7.6V98h-1.143v1.314h1.143Zm0,7.992v-6.741h-1.143v6.741h1.143Zm4.294,0v-3.682a2.283,2.283,0,0,1,.53-1.758,1.849,1.849,0,0,1,1.26-.463,1.5,1.5,0,0,1,.8.206,1.092,1.092,0,0,1,.473.552,3.078,3.078,0,0,1,.133,1.044v4.1h1.143v-4.145a6.46,6.46,0,0,0-.064-1.111,2.2,2.2,0,0,0-.355-0.844,1.76,1.76,0,0,0-.765-0.575,2.815,2.815,0,0,0-1.12-.219,2.424,2.424,0,0,0-2.146,1.111v-0.958h-1.028v6.741H498.4Zm16.1,0a6.185,6.185,0,0,0,1.5-.156,2.843,2.843,0,0,0,1.019-.46,2.362,2.362,0,0,0,.682-0.866,2.722,2.722,0,0,0,.276-1.216,2.258,2.258,0,0,0-.454-1.409,2.426,2.426,0,0,0-1.3-.844,2.317,2.317,0,0,0,.978-0.851,2.116,2.116,0,0,0,.323-1.123,2.287,2.287,0,0,0-.365-1.229,2.2,2.2,0,0,0-1.009-.87A4.324,4.324,0,0,0,514.443,98h-3.491v9.306H514.5ZM512.184,99.1h1.859a5.3,5.3,0,0,1,1.416.13,1.124,1.124,0,0,1,.635.482,1.5,1.5,0,0,1,.222.816,1.333,1.333,0,0,1-.238.812,1.306,1.306,0,0,1-.708.463,4.483,4.483,0,0,1-1.174.108h-2.012V99.1Zm0,3.91h2.151a4.571,4.571,0,0,1,1.362.156,1.412,1.412,0,0,1,.74.54,1.549,1.549,0,0,1,.266.9,1.616,1.616,0,0,1-.184.784,1.345,1.345,0,0,1-.47.517,2,2,0,0,1-.711.254,5.26,5.26,0,0,1-.838.045h-2.316v-3.2Zm9.42,3.542a3.028,3.028,0,0,0,2.289.908,3.308,3.308,0,0,0,1.628-.412,2.765,2.765,0,0,0,1.136-1.159,4.46,4.46,0,0,0,.391-2.047,3.466,3.466,0,0,0-.883-2.517,3.024,3.024,0,0,0-2.272-.911,3.136,3.136,0,0,0-2.12.749,3.475,3.475,0,0,0-1.041,2.774A3.627,3.627,0,0,0,521.6,106.552ZM522.471,102a1.884,1.884,0,0,1,2.834,0,2.787,2.787,0,0,1,.568,1.895,2.935,2.935,0,0,1-.565,1.974,1.879,1.879,0,0,1-2.837,0A3.6,3.6,0,0,1,522.471,102Zm7.408,4.913a3.168,3.168,0,0,0,2,.546,3.5,3.5,0,0,0,1.422-.276,2.147,2.147,0,0,0,.961-0.781,1.919,1.919,0,0,0,.334-1.076,1.68,1.68,0,0,0-.273-0.977,1.722,1.722,0,0,0-.753-0.6,14.15,14.15,0,0,0-1.691-.53q-0.838-.228-1.01-0.292a1,1,0,0,1-.438-0.3,0.628,0.628,0,0,1-.139-0.4,0.759,0.759,0,0,1,.336-0.609,1.872,1.872,0,0,1,1.124-.26,1.61,1.61,0,0,1,1.031.292,1.213,1.213,0,0,1,.441.812l1.118-.152a2.422,2.422,0,0,0-.394-1.044,1.888,1.888,0,0,0-.885-0.619,3.891,3.891,0,0,0-1.394-.229,3.457,3.457,0,0,0-.987.137,2.362,2.362,0,0,0-.727.333,1.84,1.84,0,0,0-.561.638,1.731,1.731,0,0,0-.207.835,1.664,1.664,0,0,0,.987,1.545,10.564,10.564,0,0,0,1.743.549,4.952,4.952,0,0,1,1.168.388,0.694,0.694,0,0,1,.336.609,0.957,0.957,0,0,1-.381.752,1.784,1.784,0,0,1-1.168.321,1.848,1.848,0,0,1-1.215-.362,1.576,1.576,0,0,1-.53-1.041L529,105.3A2.538,2.538,0,0,0,529.879,106.914Zm9.871-.584a0.76,0.76,0,0,1-.39-0.082,0.475,0.475,0,0,1-.2-0.222,2,2,0,0,1-.06-0.629v-3.942h1.149v-0.888H539.1V98.212l-1.137.686v1.67h-0.837v0.888h0.837v3.879a4.1,4.1,0,0,0,.14,1.349,1.1,1.1,0,0,0,.482.517,1.96,1.96,0,0,0,.965.2,4.229,4.229,0,0,0,.864-0.1l-0.165-1.009a3.658,3.658,0,0,1-.5.044h0Zm3.754,0.222a3.028,3.028,0,0,0,2.289.908,3.308,3.308,0,0,0,1.628-.412,2.765,2.765,0,0,0,1.136-1.159,4.46,4.46,0,0,0,.391-2.047,3.466,3.466,0,0,0-.883-2.517,3.024,3.024,0,0,0-2.272-.911,3.136,3.136,0,0,0-2.12.749,3.475,3.475,0,0,0-1.041,2.774A3.627,3.627,0,0,0,543.5,106.552ZM544.371,102a1.884,1.884,0,0,1,2.834,0,2.787,2.787,0,0,1,.568,1.895,2.935,2.935,0,0,1-.565,1.974,1.879,1.879,0,0,1-2.837,0A3.6,3.6,0,0,1,544.371,102Zm8.129,5.307v-3.682a2.283,2.283,0,0,1,.53-1.758,1.849,1.849,0,0,1,1.26-.463,1.5,1.5,0,0,1,.8.206,1.092,1.092,0,0,1,.473.552,3.078,3.078,0,0,1,.133,1.044v4.1h1.143v-4.145a6.46,6.46,0,0,0-.064-1.111,2.2,2.2,0,0,0-.355-0.844,1.76,1.76,0,0,0-.765-0.575,2.815,2.815,0,0,0-1.12-.219,2.424,2.424,0,0,0-2.146,1.111v-0.958h-1.028v6.741H552.5Z" transform="translate(-376.219 -59)"/>
</svg>
